# xmcd
#
# Track frame offsets: 
#        150
#        16936
#        32185
#        46927
#        64360
#        82925
#        101927
#        122370
#        139636
#        155203
#        172221
#        188352
#        209520
#        228801
#        248577
#        266015
#
# Disc length: 3785 seconds
#
# Revision: 2
# Processed by: cddbd v1.5.2PL0 Copyright (c) Steve Scherf et al.
# Submitted via: ExactAudioCopyFreeDBPlugin 1.0
#
DISCID=d70ec710
DTITLE=Various Artist - ALL STAR EVERGREEN BEST
DYEAR=1900
DGENRE=Soundtrack
TTITLE0=久保田早紀 - 異邦人
TTITLE1=八神純子 - みずいろの雨
TTITLE2=渡辺真知子 - かもめが翔んだ日
TTITLE3=大橋純子 - たそがれマイ・ラブ
TTITLE4=ゴダイゴ - ガンダーラ
TTITLE5=アリス - チャンピオン
TTITLE6=チューリップ - 虹とスニーカーの頃
TTITLE7=甲斐バンド - HERO (ヒーローになる時、それは今) -2007 RE-MIX-
TTITLE8=世良公則 and ツイスト - 銃爪
TTITLE9=原田真二 - てぃーんず ぶるーす
TTITLE10=Char - 気絶するほど悩ましい
TTITLE11=桑名正博 - セクシャルバイオレット No.1
TTITLE12=柳ジョージ and レイニーウッド - 雨に泣いてる -日本語ヴァージョン-
TTITLE13=上田正樹 - 悲しい色やね
TTITLE14=堀江淳 - メモリーグラス
TTITLE15=もんた&ブラザーズ - ダンシング・オールナイト
EXTD=
EXTT0=
EXTT1=
EXTT2=
EXTT3=
EXTT4=
EXTT5=
EXTT6=
EXTT7=
EXTT8=
EXTT9=
EXTT10=
EXTT11=
EXTT12=
EXTT13=
EXTT14=
EXTT15=
PLAYORDER=
